<svg width="24" height="24" viewBox="0 0 24 24" fill="none" xmlns="http://www.w3.org/2000/svg">
<g id="document-x">
<path id="Vector" fill-rule="evenodd" clip-rule="evenodd" d="M10.207 10.293C10.1148 10.1975 10.0044 10.1213 9.8824 10.0689C9.7604 10.0165 9.62918 9.9889 9.4964 9.98775C9.36362 9.9866 9.23194 10.0119 9.10905 10.0622C8.98615 10.1125 8.8745 10.1867 8.78061 10.2806C8.68671 10.3745 8.61246 10.4862 8.56218 10.609C8.5119 10.7319 8.4866 10.8636 8.48775 10.9964C8.4889 11.1292 8.51649 11.2604 8.5689 11.3824C8.62131 11.5044 8.69749 11.6148 8.793 11.707L10.586 13.5L8.793 15.293C8.69749 15.3852 8.62131 15.4956 8.5689 15.6176C8.51649 15.7396 8.4889 15.8708 8.48775 16.0036C8.4866 16.1364 8.5119 16.2681 8.56218 16.391C8.61246 16.5139 8.68671 16.6255 8.78061 16.7194C8.8745 16.8133 8.98615 16.8875 9.10905 16.9378C9.23194 16.9881 9.36362 17.0134 9.4964 17.0123C9.62918 17.0111 9.7604 16.9835 9.8824 16.9311C10.0044 16.8787 10.1148 16.8025 10.207 16.707L12 14.914L13.793 16.707C13.9816 16.8892 14.2342 16.99 14.4964 16.9877C14.7586 16.9854 15.0094 16.8802 15.1948 16.6948C15.3802 16.5094 15.4854 16.2586 15.4877 15.9964C15.49 15.7342 15.3892 15.4816 15.207 15.293L13.414 13.5L15.207 11.707C15.3892 11.5184 15.49 11.2658 15.4877 11.0036C15.4854 10.7414 15.3802 10.4906 15.1948 10.3052C15.0094 10.1198 14.7586 10.0146 14.4964 10.0123C14.2342 10.01 13.9816 10.1108 13.793 10.293L12 12.086L10.207 10.293ZM12.482 2C13.161 1.999 13.763 1.998 14.32 2.228C14.876 2.458 15.301 2.886 15.78 3.366C16.73 4.319 17.681 5.27 18.634 6.219C19.114 6.699 19.541 7.124 19.772 7.68C20.002 8.237 20.002 8.84 20 9.518C19.996 12.034 20 14.55 20 17.066C20 17.952 20 18.716 19.918 19.328C19.83 19.983 19.631 20.612 19.121 21.121C18.611 21.631 17.983 21.83 17.328 21.918C16.716 22 15.952 22 15.066 22H8.934C8.048 22 7.284 22 6.672 21.918C6.017 21.83 5.388 21.631 4.879 21.121C4.369 20.611 4.17 19.983 4.082 19.328C4 18.716 4 17.952 4 17.066V6.934C4 6.048 4 5.284 4.082 4.672C4.17 4.017 4.369 3.388 4.879 2.879C5.389 2.369 6.017 2.17 6.672 2.082C7.284 2 8.048 2 8.934 2C10.117 2 11.299 2.002 12.482 2Z" fill="#010101" fill-opacity="0.5"/>
</g>
</svg>
