<svg width="24" height="24" viewBox="0 0 24 24" fill="none" xmlns="http://www.w3.org/2000/svg">
<g id="pencil">
<path id="Vector" fill-rule="evenodd" clip-rule="evenodd" d="M20.774 8.1C22.384 6.484 22.315 4.362 21.113 3.062C20.8105 2.73494 20.4452 2.47231 20.0388 2.28982C19.6324 2.10734 19.1934 2.00876 18.748 2C17.799 1.978 16.817 2.34 15.91 3.099C15.8867 3.1183 15.8644 3.13865 15.843 3.16L2.874 16.181C2.31368 16.7438 1.99937 17.5058 2 18.3V19.993C2 21.094 2.892 22 4.004 22H5.683C6.07789 21.9999 6.46887 21.9219 6.83353 21.7703C7.19819 21.6188 7.52934 21.3968 7.808 21.117L20.774 8.1ZM17.207 5.793C17.1148 5.69749 17.0044 5.62131 16.8824 5.5689C16.7604 5.51649 16.6292 5.4889 16.4964 5.48775C16.3636 5.48659 16.2319 5.5119 16.109 5.56218C15.9862 5.61246 15.8745 5.68671 15.7806 5.7806C15.6867 5.8745 15.6125 5.98615 15.5622 6.10905C15.5119 6.23194 15.4866 6.36362 15.4878 6.4964C15.4889 6.62918 15.5165 6.7604 15.5689 6.8824C15.6213 7.00441 15.6975 7.11475 15.793 7.207L16.793 8.207C16.8852 8.30251 16.9956 8.37869 17.1176 8.4311C17.2396 8.48351 17.3708 8.5111 17.5036 8.51225C17.6364 8.5134 17.7681 8.4881 17.891 8.43782C18.0139 8.38754 18.1255 8.31329 18.2194 8.21939C18.3133 8.1255 18.3875 8.01385 18.4378 7.89095C18.4881 7.76806 18.5134 7.63638 18.5123 7.5036C18.5111 7.37082 18.4835 7.2396 18.4311 7.11759C18.3787 6.99559 18.3025 6.88525 18.207 6.793L17.207 5.793Z" fill="black" fill-opacity="0.5"/>
</g>
</svg>
